# xmcd
#
# Track frame offsets: 
#        150
#        3020
#        17327
#        31087
#        45255
#        59362
#        72340
#        85750
#        98910
#        114032
#        129127
#        143487
#        157742
#        171100
#        183082
#        196805
#        210402
#        223222
#
# Disc length: 3026 seconds
#
# Revision: 2
# Processed by: cddbd v1.5.2PL0 Copyright (c) Steve Scherf et al.
# Submitted via: ExactAudioCopyFreeDBPlugin 1.0
#
DISCID=cc0bd012
DTITLE=Benny More - The best of Beny More
DYEAR=1999
DGENRE=Latin
TTITLE0=Locutor
TTITLE1=Cienfuegos
TTITLE2=Candelina Ale
TTITLE3=Maracaibo Oriental
TTITLE4=Preferi Perderte
TTITLE5=Camarera del Amor
TTITLE6=Ya Son las Doce
TTITLE7=Manzanillo
TTITLE8=Locutor: Mi Corazon Lloro
TTITLE9=No me Vas a Enganar
TTITLE10=El Brujo de Trinidad
TTITLE11=Como Arrullo de Palma
TTITLE12=Provocadora
TTITLE13=Mulata que Cola
TTITLE14=Elige tu que Canto Yo
TTITLE15=Me Conoces Bien
TTITLE16=No hay Tierra como la mia
TTITLE17=Locutor: Despedida
EXTD=
EXTT0=
EXTT1=
EXTT2=
EXTT3=
EXTT4=
EXTT5=
EXTT6=
EXTT7=
EXTT8=
EXTT9=
EXTT10=
EXTT11=
EXTT12=
EXTT13=
EXTT14=
EXTT15=
EXTT16=
EXTT17=
PLAYORDER=
